<?xml version="1.0" encoding="UTF-8"?>
<svg width="24" height="24" viewBox="0 0 24 24" fill="none" xmlns="http://www.w3.org/2000/svg">
  <path d="M3 10C3 9.44772 3.44772 9 4 9H20C20.5523 9 21 9.44772 21 10V17C21 17.5523 20.5523 18 20 18H4C3.44772 18 3 17.5523 3 17V10Z" stroke="currentColor" stroke-width="2"/>
  <path d="M6 12H8" stroke="currentColor" stroke-width="2" stroke-linecap="round"/>
  <path d="M16 12H18" stroke="currentColor" stroke-width="2" stroke-linecap="round"/>
  <path d="M3 14H21" stroke="currentColor" stroke-width="2"/>
  <path d="M4 9V5C4 4.44772 4.44772 4 5 4H19C19.5523 4 20 4.44772 20 5V9" stroke="currentColor" stroke-width="2"/>
  <path d="M20 7H21" stroke="currentColor" stroke-width="2"/>
</svg>
